<?xml version="1.0" standalone="no"?>
<!DOCTYPE svg PUBLIC "-//W3C//DTD SVG 20010904//EN"
 "http://www.w3.org/TR/2001/REC-SVG-20010904/DTD/svg10.dtd">
<svg version="1.0" xmlns="http://www.w3.org/2000/svg"
 width="500.000000pt" height="500.000000pt" viewBox="0 0 500.000000 500.000000"
 preserveAspectRatio="xMidYMid meet">

<g transform="translate(0.000000,500.000000) scale(0.100000,-0.100000)"
fill="#000000" stroke="none">
<path d="M2305 4309 c-450 -46 -866 -236 -1193 -543 -207 -196 -396 -481 -497
-751 -124 -331 -157 -754 -85 -1100 37 -180 118 -411 186 -533 220 -395 489
-661 865 -856 289 -150 570 -218 899 -220 203 -1 340 15 514 61 104 27 302 99
352 127 34 20 25 17 -111 -36 -122 -47 -253 -81 -405 -104 -137 -22 -452 -24
-575 -5 -282 43 -567 150 -795 299 -126 82 -194 136 -309 247 -336 325 -539
743 -590 1217 -47 431 71 915 311 1278 233 351 579 628 968 774 101 38 286 87
410 108 45 8 161 13 290 12 178 0 236 -4 336 -22 155 -28 331 -82 467 -142 59
-27 107 -46 107 -44 0 9 -191 94 -288 128 -269 96 -576 134 -857 105z"/>
<path d="M1979 4055 c-50 -27 -219 -367 -219 -441 0 -78 44 -92 308 -96 l183
-3 -3 34 c-2 27 -8 36 -28 41 -105 30 -140 42 -135 50 3 4 29 2 58 -6 79 -21
83 -18 30 30 -26 24 -46 47 -43 50 3 3 35 -18 70 -45 59 -45 66 -48 75 -32 6
9 23 30 38 46 18 19 24 33 19 41 -164 213 -284 346 -314 346 -7 -1 -25 -7 -39
-15z"/>
<path d="M2739 3948 c-64 -43 -266 -204 -286 -230 -15 -19 -26 -88 -14 -88 6
0 42 20 80 45 67 43 99 56 86 35 -3 -6 -42 -33 -86 -61 -44 -28 -78 -53 -77
-54 2 -2 51 8 110 23 101 24 135 25 112 2 -6 -6 -55 -20 -110 -31 -54 -12
-100 -23 -102 -24 -5 -4 30 -58 42 -67 6 -4 33 -10 61 -13 27 -4 100 -18 160
-32 61 -15 139 -26 174 -27 56 0 66 3 84 25 33 40 14 167 -59 408 -26 85 -58
131 -92 131 -10 0 -47 -19 -83 -42z"/>
<path d="M2358 3695 c-52 -29 -104 -188 -67 -210 21 -14 126 -17 148 -6 l22
12 -23 37 c-19 30 -23 51 -23 110 1 79 -5 85 -57 57z"/>
<path d="M2061 3427 c-98 -60 -100 -58 67 -82 l113 -16 66 37 66 37 -46 17
c-25 10 -58 27 -73 39 -46 36 -96 28 -193 -32z"/>
<path d="M3010 3419 c-47 -21 -88 -40 -92 -41 -7 -3 9 -288 16 -295 1 -2 46
16 100 39 l97 41 -6 116 c-7 133 -13 181 -23 180 -4 0 -45 -18 -92 -40z"/>
<path d="M1925 3209 c-4 -77 -5 -142 -3 -144 5 -6 249 -48 252 -44 2 2 6 68 8
145 l4 142 -105 17 c-58 10 -116 19 -127 21 -21 4 -22 -1 -29 -137z"/>
<path d="M3470 3190 c0 -5 11 -10 25 -10 14 0 25 5 25 10 0 6 -11 10 -25 10
-14 0 -25 -4 -25 -10z"/>
<path d="M3028 3072 c-83 -35 -88 -39 -88 -67 0 -33 26 -184 32 -190 2 -3 17
-1 34 4 26 7 29 12 32 54 4 58 18 61 27 7 6 -33 11 -40 30 -40 13 0 26 3 29 8
4 7 10 205 7 245 -1 22 -1 22 -103 -21z"/>
<path d="M1920 2976 c0 -19 5 -57 12 -85 9 -41 15 -51 32 -51 12 0 31 -3 44
-6 20 -6 22 -3 22 39 0 25 5 49 10 52 6 4 10 -11 10 -37 0 -57 7 -65 61 -73
53 -8 52 -9 64 97 8 66 21 57 -130 83 -126 21 -125 21 -125 -19z"/>
<path d="M3730 2972 c6 -13 14 -21 18 -18 3 4 -2 14 -12 24 -18 16 -18 16 -6
-6z"/>
<path d="M1467 2973 c-4 -3 -7 -11 -7 -17 0 -6 5 -5 12 2 6 6 9 14 7 17 -3 3
-9 2 -12 -2z"/>
<path d="M1211 2858 c41 -54 59 -69 59 -50 0 4 -23 30 -52 57 l-51 50 44 -57z"/>
<path d="M2404 2811 c-81 -37 -152 -136 -189 -265 -24 -82 -17 -229 15 -310
53 -138 199 -229 317 -197 42 11 125 77 145 115 15 28 37 136 31 152 -7 19
-39 27 -61 15 -11 -6 -27 -30 -37 -53 -40 -101 -122 -139 -178 -82 -31 31 -62
109 -77 196 -11 63 0 157 28 229 17 43 62 88 98 98 43 12 60 7 100 -31 23 -22
38 -28 53 -23 53 16 22 114 -49 154 -49 27 -138 28 -196 2z m7 -30 c-14 -10
-38 -27 -54 -36 -27 -16 -29 -16 -20 -1 12 22 63 56 83 56 10 0 7 -7 -9 -19z
m233 -109 c-16 -4 -44 15 -44 29 0 4 13 0 30 -9 21 -12 25 -18 14 -20z m55
-359 c0 -11 -59 -56 -59 -46 0 17 31 53 46 53 8 0 14 -3 13 -7z m-291 -227
c45 -23 34 -31 -14 -11 -43 18 -71 40 -86 69 -8 15 -1 12 28 -11 21 -17 54
-38 72 -47z"/>
<path d="M1916 2739 c-3 -40 -2 -76 3 -83 5 -6 11 -22 13 -35 2 -19 12 -27 37
-34 52 -13 61 -5 61 57 0 30 4 57 9 60 9 6 21 -49 21 -100 0 -29 3 -32 42 -37
24 -3 44 -5 45 -3 7 7 23 114 23 156 l0 47 -102 17 c-57 10 -112 20 -124 23
-19 4 -22 -1 -28 -68z"/>
<path d="M3041 2787 l-84 -20 6 -104 c4 -80 9 -109 23 -124 31 -34 74 -22 49
15 -32 44 -9 121 44 152 38 22 74 71 67 90 -6 16 1 17 -105 -9z"/>
<path d="M1315 2766 c-21 -15 -20 -31 22 -384 25 -215 26 -225 9 -253 -16 -28
-16 -32 -2 -54 19 -29 29 -30 111 -10 33 8 103 15 156 15 83 0 98 3 118 21 14
14 21 30 19 47 -3 25 -7 27 -50 29 -26 1 -56 7 -68 13 -12 7 -49 10 -83 8
l-61 -3 -38 205 c-64 341 -86 401 -133 366z m6 -63 c-9 -15 -10 -13 -11 13 0
17 3 34 8 38 11 12 14 -32 3 -51z m419 -558 c0 -18 -39 -59 -47 -51 -4 3 1 14
10 24 10 10 17 24 17 30 0 7 5 12 10 12 6 0 10 -7 10 -15z m-351 -83 c-13 -5
-39 17 -39 33 0 9 9 6 25 -8 13 -12 20 -24 14 -25z"/>
<path d="M3585 2710 c-7 -12 11 -40 26 -40 14 0 10 26 -5 39 -10 9 -16 9 -21
1z"/>
<path d="M1452 2674 c1 -9 9 -19 16 -22 9 -3 13 2 10 14 -1 9 -9 19 -16 22 -9
3 -13 -2 -10 -14z"/>
<path d="M3160 2668 c-45 -12 -70 -35 -70 -63 0 -29 19 -45 52 -45 l28 0 0
-82 c-1 -125 -17 -277 -35 -328 -19 -55 -13 -88 19 -96 83 -20 138 128 140
371 1 155 -9 202 -51 235 -28 22 -33 23 -83 8z m-14 -95 c-8 -9 -36 17 -36 33
0 10 7 7 21 -7 11 -11 18 -23 15 -26z m17 -470 c3 -16 3 -30 1 -33 -7 -7 -24
23 -24 43 0 27 17 20 23 -10z"/>
<path d="M3381 2612 c-47 -47 -49 -137 -5 -350 18 -89 39 -118 79 -108 24 6
26 11 25 49 -3 70 -2 72 46 107 l46 33 30 -32 c32 -34 68 -40 88 -16 26 31
-25 137 -128 263 -37 45 -96 82 -132 82 -12 0 -34 -12 -49 -28z m0 -59 c-10
-31 -17 -41 -19 -30 -4 21 16 77 28 77 4 0 0 -21 -9 -47z m129 -130 c0 -13
-30 -33 -49 -33 -7 0 -11 23 -11 58 l1 57 29 -35 c17 -19 30 -40 30 -47z m150
-131 c-12 -4 -50 26 -50 40 0 5 14 -2 31 -14 16 -12 25 -24 19 -26z m-215
-131 c-8 -7 -45 36 -45 52 0 5 11 -2 26 -18 14 -15 22 -30 19 -34z"/>
<path d="M1818 2550 c-27 -16 -102 -127 -144 -212 -32 -65 -36 -79 -25 -92 20
-24 45 -19 69 14 20 26 29 30 72 30 50 0 50 0 50 -33 0 -38 15 -57 46 -57 35
0 54 62 57 190 2 97 0 111 -19 137 -23 30 -75 42 -106 23z m22 -20 c-24 -19
-40 -25 -40 -15 0 5 51 34 60 34 3 0 -6 -8 -20 -19z m10 -120 c0 -38 -2 -40
-30 -40 -16 0 -30 3 -30 7 0 8 49 73 56 73 2 0 4 -18 4 -40z m-183 -157 c-3
-10 -5 -4 -5 12 0 17 2 24 5 18 2 -7 2 -21 0 -30z m205 -18 c3 -14 1 -25 -3
-25 -5 0 -9 4 -9 9 0 5 -3 16 -6 25 -3 9 -2 16 4 16 5 0 12 -11 14 -25z"/>
<path d="M923 2535 c-3 -9 -3 -18 0 -21 9 -9 27 6 27 22 0 19 -19 18 -27 -1z"/>
<path d="M1986 2503 c4 -26 11 -53 15 -59 5 -6 11 -36 15 -67 6 -51 9 -57 30
-57 21 0 24 5 24 42 0 49 11 44 19 -9 4 -25 12 -39 24 -41 15 -3 17 8 17 106
l0 110 -57 6 c-32 4 -66 9 -75 12 -16 5 -17 0 -12 -43z"/>
<path d="M2874 2491 c-47 -29 -91 -159 -110 -321 -5 -47 -3 -58 14 -73 27 -25
50 -12 62 35 9 31 18 43 45 54 57 23 82 19 90 -17 8 -37 46 -59 70 -39 22 18
19 109 -6 199 -30 106 -52 145 -93 165 -41 20 -35 20 -72 -3z m-4 -42 c-12
-16 -24 -28 -27 -25 -7 6 27 56 39 56 5 0 0 -14 -12 -31z m57 -161 c-20 -13
-47 -9 -47 7 0 9 7 32 16 53 l17 37 13 -44 c11 -36 11 -47 1 -53z m95 -138 c4
0 8 -5 8 -10 0 -7 -6 -7 -20 0 -11 6 -20 20 -19 33 l0 22 11 -22 c6 -13 15
-23 20 -23z m-230 -20 c5 -34 -7 -41 -17 -10 -5 17 0 40 9 40 2 0 6 -13 8 -30z"/>
<path d="M3051 2491 c-11 -7 -12 -13 -4 -23 6 -7 20 -40 31 -73 l21 -60 0 83
c1 72 -1 82 -16 82 -10 0 -24 -4 -32 -9z"/>
<path d="M1014 2438 c-2 -3 0 -18 6 -32 7 -20 16 -26 40 -26 47 0 89 25 83 49
-4 17 -13 20 -65 18 -33 -1 -62 -5 -64 -9z"/>
<path d="M1972 2232 c-14 -37 -31 -64 -46 -72 -21 -11 -23 -18 -19 -54 7 -51
11 -55 56 -63 35 -5 37 -4 37 23 0 49 12 104 21 98 5 -3 9 -34 9 -69 0 -68 6
-75 60 -75 27 0 28 2 39 75 6 42 11 98 11 125 l0 48 -42 7 c-24 3 -56 9 -73
11 -29 5 -31 3 -53 -54z"/>
<path d="M3553 2248 c-36 -9 -45 -38 -14 -38 27 0 71 18 71 29 0 15 -23 18
-57 9z"/>
<path d="M3707 2130 c-31 -25 -43 -74 -27 -114 15 -40 5 -44 -40 -18 -21 12
-46 22 -55 22 -23 0 -76 28 -107 58 -16 14 -28 22 -28 16 0 -5 19 -22 41 -39
l40 -29 -48 -24 c-79 -40 -131 -101 -120 -143 4 -15 0 -17 -24 -12 -35 7 -40
-15 -9 -35 32 -20 44 -60 25 -89 -9 -13 -13 -28 -10 -33 3 -6 1 -11 -4 -11 -6
-1 -15 -2 -20 -3 -5 0 -13 -5 -18 -10 -5 -5 -2 -6 6 -1 10 6 12 4 7 -4 -5 -7
-15 -10 -23 -7 -8 3 -11 1 -8 -4 7 -11 -5 -13 -45 -10 -37 3 -51 19 -48 53 5
45 47 73 109 70 27 -1 49 1 49 6 0 17 -36 38 -73 44 -46 7 -82 -5 -118 -39
l-26 -25 -13 45 c-15 54 -35 75 -53 56 -9 -10 -9 -11 1 -6 15 9 16 -6 2 -20
-7 -7 0 -48 23 -127 19 -64 32 -117 28 -116 -3 0 -35 36 -71 79 -74 89 -101
108 -122 83 -11 -14 -11 -15 0 -9 11 7 11 4 1 -11 -10 -16 -6 -39 21 -129 34
-118 43 -135 62 -116 9 9 7 26 -5 72 -24 84 -21 89 14 39 57 -81 90 -109 125
-109 39 0 49 20 36 77 l-9 39 48 0 c37 -1 56 5 90 29 64 45 92 90 86 142 l-4
41 33 -16 c39 -18 41 -23 15 -46 -16 -14 -18 -23 -10 -43 7 -18 6 -23 -4 -18
-6 4 -1 -3 12 -14 30 -27 95 -28 137 -2 68 41 44 107 -58 161 -42 21 -68 41
-68 51 0 13 61 79 73 79 1 0 17 4 35 9 25 8 35 6 48 -7 21 -21 41 -24 48 -7 9
24 47 4 107 -56 32 -32 77 -68 101 -79 l43 -21 -30 22 c-16 13 -54 47 -84 77
l-54 54 47 23 c83 40 100 93 47 146 -36 35 -86 39 -124 9z m98 -35 c14 -13 25
-28 25 -33 0 -19 -41 -60 -69 -70 -36 -13 -49 -1 -58 51 -4 29 -1 37 22 55 36
28 50 28 80 -3z m-412 -247 c10 -16 14 -28 9 -28 -8 0 -32 43 -32 57 0 7 1 6
23 -29z m141 -104 c39 -15 6 -44 -51 -44 -31 0 -29 16 5 34 33 18 27 17 46 10z
m-384 -247 c13 -5 13 -6 -1 -6 -8 -1 -24 6 -35 15 -19 15 -19 15 1 6 11 -5 27
-12 35 -15z"/>
<path d="M3320 2118 c1 -15 80 -105 80 -91 0 12 -54 88 -69 98 -6 3 -11 0 -11
-7z"/>
<path d="M1924 1996 c22 -18 72 -21 81 -6 3 6 -3 10 -13 10 -11 0 -35 3 -53 6
-32 5 -33 5 -15 -10z"/>
<path d="M2915 1992 c-43 -27 -54 -44 -51 -77 2 -20 11 -33 27 -40 19 -8 23
-16 21 -38 -3 -27 -2 -28 34 -25 74 6 71 62 -4 86 -48 16 -52 32 -17 68 19 19
30 23 52 18 25 -7 27 -6 14 9 -17 22 -39 21 -76 -1z m55 -147 c-7 -8 -21 -15
-32 -15 -17 0 -18 3 -8 15 7 8 21 15 32 15 17 0 18 -3 8 -15z"/>
<path d="M1487 1973 c-30 -58 -117 -255 -132 -299 -26 -77 18 -116 135 -118
149 -2 250 90 250 228 0 87 -86 196 -155 196 -13 0 -14 -4 -4 -22 11 -21 11
-22 -4 -9 -33 26 -16 0 22 -37 102 -97 66 -242 -66 -270 -29 -7 -61 -8 -72 -4
-18 7 -17 13 25 146 51 157 58 208 32 214 -10 2 -22 -7 -31 -25z m43 13 c0 -2
-7 -6 -15 -10 -8 -3 -15 -1 -15 4 0 6 7 10 15 10 8 0 15 -2 15 -4z m-147 -396
c-6 -6 -33 30 -33 44 0 6 9 0 20 -14 10 -14 16 -27 13 -30z"/>
<path d="M2122 1973 c-13 -25 -25 -129 -17 -153 10 -31 60 -26 96 9 23 24 29
38 29 75 0 36 -5 48 -26 65 -33 26 -70 27 -82 4z m58 -44 c0 -5 5 -7 10 -4 6
4 10 -7 9 -27 0 -18 -3 -27 -6 -20 -4 10 -9 8 -20 -7 -8 -12 -18 -21 -23 -21
-8 0 -5 42 6 78 4 15 24 16 24 1z m-56 -105 c3 -8 2 -12 -4 -9 -6 3 -10 10
-10 16 0 14 7 11 14 -7z"/>
<path d="M3010 1969 c0 -7 -11 -9 -28 -6 -32 6 -58 -5 -48 -21 9 -15 75 -27
86 -16 4 5 11 19 15 32 5 16 2 22 -9 22 -9 0 -16 -5 -16 -11z"/>
<path d="M2050 1940 c0 -11 5 -20 10 -20 6 0 10 9 10 20 0 11 -4 20 -10 20 -5
0 -10 -9 -10 -20z"/>
<path d="M3860 1950 c0 -5 11 -10 25 -10 14 0 25 5 25 10 0 6 -11 10 -25 10
-14 0 -25 -4 -25 -10z"/>
<path d="M2723 1943 c-7 -3 -13 -12 -13 -21 0 -14 -2 -14 -9 -3 -7 11 -9 8 -9
-10 -1 -13 -4 -39 -8 -58 -5 -26 -4 -32 6 -26 10 6 12 4 7 -8 -12 -31 58 -48
79 -19 16 20 18 86 4 112 -12 23 -40 39 -57 33z m28 -66 c-1 -4 -1 -18 -1 -32
0 -14 -4 -25 -10 -25 -5 0 -10 16 -10 36 0 21 4 34 11 32 6 -2 10 -7 10 -11z"/>
<path d="M2290 1927 c-24 -12 -25 -17 -22 -93 1 -43 4 -85 7 -91 6 -17 85 -16
108 1 23 18 5 25 -40 18 -42 -6 -43 12 -3 27 42 14 39 35 -4 28 -37 -6 -46 6
-46 66 0 25 3 27 45 27 45 0 60 12 29 24 -24 9 -46 7 -74 -7z"/>
<path d="M2525 1833 l4 -68 47 0 c29 0 49 5 52 13 2 8 -8 12 -31 12 -35 0 -35
0 -42 55 -4 37 -11 55 -20 55 -11 0 -13 -15 -10 -67z"/>
<path d="M1795 1770 c-4 -6 -10 -8 -14 -5 -11 6 -59 -173 -57 -210 2 -25 9
-32 42 -44 26 -9 54 -11 78 -7 46 9 38 21 -24 39 -60 17 -68 42 -11 34 22 -3
41 -1 41 4 0 5 3 8 8 8 19 -3 23 2 12 16 -7 9 -29 15 -51 15 -22 0 -39 4 -39
8 0 26 24 122 30 122 4 0 25 -6 46 -13 51 -16 79 -15 79 3 0 28 -125 54 -140
30z"/>
<path d="M2008 1730 c-63 -19 -127 -79 -123 -115 4 -32 20 -57 52 -76 36 -23
36 -23 15 -37 -12 -8 -22 -21 -22 -29 0 -8 -4 -12 -8 -9 -5 3 -8 -4 -7 -16 4
-58 122 -81 170 -33 14 13 25 34 25 46 0 22 -59 86 -114 125 -22 16 -27 26
-22 42 13 40 142 82 161 52 4 -6 11 -7 17 -4 7 5 9 2 6 -8 -4 -8 0 -15 8 -15
16 0 25 22 17 42 -14 38 -105 56 -175 35z m-95 -123 c3 -22 2 -35 -4 -32 -5 4
-9 22 -9 42 0 45 5 40 13 -10z m122 -137 c4 -6 11 -8 16 -5 5 4 9 0 9 -8 0 -9
-15 -14 -49 -16 -52 -2 -73 11 -44 28 23 13 60 14 68 1z"/>
<path d="M2843 1703 c-6 -16 -14 -71 -18 -123 -4 -52 -11 -103 -16 -112 -18
-33 -39 -19 -65 40 -14 31 -32 73 -41 92 l-16 35 -10 -33 c-18 -59 36 -202 76
-202 5 0 -2 9 -17 21 -14 11 -26 26 -26 32 0 7 8 3 18 -8 9 -12 30 -27 45 -35
42 -21 65 8 79 101 l12 74 14 -57 c8 -32 18 -55 24 -52 5 3 8 -2 6 -11 -4 -21
28 -29 36 -10 6 17 -41 209 -61 248 -7 15 -17 27 -21 27 -4 0 -12 -12 -19 -27z"/>
<path d="M2403 1668 c-4 -7 -1 -8 7 -3 8 5 11 3 9 -4 -3 -7 -9 -12 -14 -12 -6
0 -15 -14 -22 -32 -42 -115 47 -235 138 -187 10 6 19 7 19 3 0 -20 -43 -74
-65 -83 -16 -6 -23 -14 -19 -25 3 -8 11 -15 16 -15 6 0 4 8 -3 18 -13 16 -13
16 7 0 26 -23 36 -23 68 3 35 27 72 102 91 181 25 107 16 184 -18 148 -9 -10
-9 -11 2 -5 9 5 12 3 10 -4 -3 -7 -8 -11 -12 -9 -4 2 -17 -17 -28 -42 -31 -68
-66 -110 -94 -110 -35 0 -49 34 -50 114 0 58 -3 70 -17 72 -10 1 -21 -3 -25
-8z m17 -198 c0 -3 12 -13 28 -22 15 -10 22 -18 16 -18 -19 0 -61 39 -67 62
-6 22 -5 22 8 4 8 -11 15 -22 15 -26z"/>
<path d="M2192 1637 c-13 -13 -27 -39 -33 -58 -14 -48 -12 -228 4 -248 10 -12
9 -13 -3 -6 -12 6 -12 5 -3 -5 13 -14 33 -5 33 14 0 8 27 24 59 36 l60 22 23
-22 c13 -13 16 -19 8 -15 -12 6 -12 5 -3 -5 6 -7 17 -9 23 -5 33 20 -38 245
-91 290 -38 31 -50 31 -77 2z m28 9 c0 -2 -8 -10 -17 -17 -16 -13 -17 -12 -4
4 13 16 21 21 21 13z m52 -135 c10 -25 18 -49 18 -53 0 -6 -85 -48 -98 -48 -9
0 6 136 19 164 l13 28 16 -23 c8 -12 23 -43 32 -68z"/>
<path d="M1392 1058 l2 -53 3 47 c3 33 9 48 21 51 12 3 11 5 -5 6 -21 1 -23
-3 -21 -51z"/>
<path d="M1482 1075 c-1 -22 2 -46 7 -53 11 -18 43 -12 48 8 4 12 3 13 -5 1
-18 -25 -41 -4 -45 41 l-4 43 -1 -40z"/>
<path d="M1542 1080 c0 -19 2 -27 5 -17 2 9 2 25 0 35 -3 9 -5 1 -5 -18z"/>
<path d="M1660 1060 c0 -27 3 -50 8 -50 4 0 6 19 4 41 -3 28 0 44 9 50 11 7
10 9 -3 9 -15 0 -18 -9 -18 -50z"/>
<path d="M1709 1098 c7 -10 11 -31 9 -47 -2 -17 -1 -28 4 -25 15 9 8 61 -9 75
-16 13 -17 12 -4 -3z"/>
<path d="M1793 1075 c0 -22 2 -30 4 -17 2 12 2 30 0 40 -3 9 -5 -1 -4 -23z"/>
<path d="M1818 1103 c7 -3 16 -2 19 1 4 3 -2 6 -13 5 -11 0 -14 -3 -6 -6z"/>
<path d="M1903 1094 c-4 -10 4 -25 21 -40 14 -14 26 -20 26 -15 0 5 -10 17
-21 25 -13 9 -19 21 -16 30 4 9 4 16 1 16 -2 0 -7 -7 -11 -16z"/>
<path d="M2046 1080 c4 -19 11 -44 15 -55 6 -14 7 -9 3 15 -4 19 -11 44 -15
55 -6 14 -7 9 -3 -15z"/>
<path d="M2169 1093 c-13 -16 -12 -17 4 -4 16 13 21 21 13 21 -2 0 -10 -8 -17
-17z"/>
<path d="M2242 1090 c0 -14 2 -19 5 -12 2 6 2 18 0 25 -3 6 -5 1 -5 -13z"/>
<path d="M2293 1075 c0 -22 2 -30 4 -17 2 12 2 30 0 40 -3 9 -5 -1 -4 -23z"/>
<path d="M2361 1083 c0 -25 1 -26 9 -8 7 18 10 15 28 -24 l20 -45 7 36 c4 20
5 44 2 55 -3 10 -5 0 -6 -22 l-2 -40 -20 38 c-23 44 -39 48 -38 10z"/>
<path d="M2522 1098 c9 -7 19 -24 21 -38 3 -16 5 -13 4 10 -2 26 -7 36 -22 38
-18 4 -19 3 -3 -10z"/>
<path d="M2752 1058 l2 -53 3 47 c3 33 9 48 21 51 12 3 11 5 -5 6 -21 1 -23
-3 -21 -51z"/>
<path d="M2844 1060 c1 -35 5 -45 19 -46 11 -1 12 0 3 3 -9 2 -16 21 -19 46
l-4 42 1 -45z"/>
<path d="M3162 1103 c9 -2 20 -13 23 -24 4 -11 9 -18 12 -16 10 10 -18 47 -35
46 -16 -1 -16 -2 0 -6z"/>
<path d="M3253 1065 c0 -27 2 -38 4 -22 2 15 2 37 0 50 -2 12 -4 0 -4 -28z"/>
<path d="M3286 1095 c4 -8 2 -21 -4 -28 -11 -14 2 -57 18 -57 6 0 4 10 -5 24
-11 16 -13 26 -6 31 14 8 14 45 1 45 -5 0 -7 -7 -4 -15z"/>
<path d="M3371 1094 c0 -11 3 -14 6 -6 3 7 2 16 -1 19 -3 4 -6 -2 -5 -13z"/>
<path d="M3399 1101 c8 -5 11 -16 8 -26 -4 -9 -3 -14 3 -10 17 11 11 45 -7 45
-15 0 -15 -2 -4 -9z"/>
<path d="M3473 1065 c0 -27 2 -38 4 -22 2 15 2 37 0 50 -2 12 -4 0 -4 -28z"/>
<path d="M3515 1099 c3 -9 -1 -21 -9 -28 -12 -10 -13 -18 -4 -37 6 -13 15 -24
20 -24 4 0 3 9 -4 20 -10 16 -10 24 0 41 10 16 11 24 2 33 -8 8 -10 7 -5 -5z"/>
<path d="M3592 1063 c-2 -52 -1 -53 26 -52 22 1 23 2 5 6 -18 4 -23 12 -26 51
l-3 47 -2 -52z"/>
<path d="M3703 1094 c-4 -10 2 -23 14 -33 11 -9 23 -23 26 -31 5 -13 6 -13 6
1 1 9 -8 24 -19 34 -12 10 -18 25 -16 32 3 7 3 13 0 13 -2 0 -7 -7 -11 -16z"/>
<path d="M3735 1100 c3 -5 8 -10 11 -10 2 0 4 5 4 10 0 6 -5 10 -11 10 -5 0
-7 -4 -4 -10z"/>
<path d="M2902 1080 c0 -14 2 -19 5 -12 2 6 2 18 0 25 -3 6 -5 1 -5 -13z"/>
<path d="M3026 1091 c-3 -4 6 -19 19 -31 14 -13 25 -18 25 -12 0 6 -9 16 -20
22 -11 6 -18 15 -15 21 4 5 4 9 1 9 -3 0 -7 -4 -10 -9z"/>
<path d="M2483 1050 c2 -36 28 -53 48 -33 6 6 1 9 -13 9 -17 -1 -24 6 -29 29
-7 29 -7 29 -6 -5z"/>
<path d="M3811 1049 c-6 -18 -9 -34 -7 -36 2 -2 9 10 15 28 6 18 9 34 7 36 -2
2 -9 -10 -15 -28z"/>
<path d="M2006 1055 c-3 -9 -6 -22 -5 -28 0 -7 5 -1 10 12 5 13 8 26 5 28 -2
2 -6 -3 -10 -12z"/>
<path d="M3121 1049 c-1 -21 24 -43 41 -36 9 4 8 6 -3 6 -9 1 -21 11 -27 24
-8 16 -11 17 -11 6z"/>
<path d="M3862 1035 c0 -16 2 -22 5 -12 2 9 2 23 0 30 -3 6 -5 -1 -5 -18z"/>
<path d="M1890 1028 c0 -12 7 -18 23 -17 15 0 17 2 7 6 -8 3 -18 11 -22 17 -5
7 -8 4 -8 -6z"/>
<path d="M2240 1032 c0 -18 29 -27 43 -13 9 9 8 11 -7 5 -11 -4 -21 -2 -27 7
-6 10 -9 11 -9 1z"/>
<path d="M3010 1032 c0 -12 19 -26 26 -19 2 2 -2 10 -11 17 -9 8 -15 8 -15 2z"/>
<path d="M3361 1024 c0 -11 3 -14 6 -6 3 7 2 16 -1 19 -3 4 -6 -2 -5 -13z"/>
<path d="M3693 1030 c2 -8 12 -16 23 -17 13 -2 15 -1 4 4 -8 3 -19 11 -23 17
-6 7 -7 6 -4 -4z"/>
<path d="M1917 956 c10 -13 19 -23 21 -21 7 6 -19 45 -29 45 -5 0 -2 -11 8
-24z"/>
<path d="M2024 935 c1 -42 4 -50 21 -53 18 -4 19 -3 3 10 -9 7 -19 31 -21 53
-3 32 -4 30 -3 -10z"/>
<path d="M2082 955 c0 -16 2 -22 5 -12 2 9 2 23 0 30 -3 6 -5 -1 -5 -18z"/>
<path d="M2151 964 c0 -11 3 -14 6 -6 3 7 2 16 -1 19 -3 4 -6 -2 -5 -13z"/>
<path d="M2254 969 c-3 -6 5 -23 20 -37 14 -15 26 -21 26 -15 0 7 -9 17 -21
23 -12 7 -18 18 -15 26 6 17 0 19 -10 3z"/>
<path d="M2285 970 c3 -5 11 -10 16 -10 6 0 7 5 4 10 -3 6 -11 10 -16 10 -6 0
-7 -4 -4 -10z"/>
<path d="M2362 973 c12 -3 18 -18 21 -51 l3 -47 2 47 c2 35 6 48 20 51 9 3 -1
5 -23 5 -22 0 -32 -2 -23 -5z"/>
<path d="M2516 966 c3 -8 1 -17 -5 -21 -16 -9 -13 -41 5 -55 13 -12 14 -10 3
14 -10 20 -10 29 -1 38 14 14 16 38 2 38 -5 0 -7 -6 -4 -14z"/>
<path d="M2636 950 c4 -19 11 -44 15 -55 6 -14 7 -9 3 15 -4 19 -11 44 -15 55
-6 14 -7 9 -3 -15z"/>
<path d="M2782 968 c-7 -7 -12 -16 -12 -22 0 -5 6 -1 14 9 8 11 19 16 30 12 9
-4 16 -2 16 3 0 14 -34 12 -48 -2z"/>
<path d="M2926 950 c4 -19 11 -44 15 -55 6 -14 7 -9 3 15 -4 19 -11 44 -15 55
-6 14 -7 9 -3 -15z"/>
<path d="M3020 965 c0 -8 2 -15 4 -15 2 0 6 7 10 15 3 8 1 15 -4 15 -6 0 -10
-7 -10 -15z"/>
<path d="M3137 950 c9 -53 25 -84 17 -35 -3 22 -10 47 -15 55 -5 10 -6 2 -2
-20z"/>
<path d="M1892 910 c0 -19 2 -27 5 -17 2 9 2 25 0 35 -3 9 -5 1 -5 -18z"/>
<path d="M2596 925 c-3 -9 -6 -22 -5 -28 0 -7 5 -1 10 12 5 13 8 26 5 28 -2 2
-6 -3 -10 -12z"/>
<path d="M2886 925 c-3 -9 -6 -24 -5 -33 0 -9 5 -4 10 12 9 32 6 48 -5 21z"/>
<path d="M2472 905 c0 -16 2 -22 5 -12 2 9 2 23 0 30 -3 6 -5 -1 -5 -18z"/>
<path d="M2761 919 c-1 -22 24 -42 46 -36 15 4 15 5 -3 6 -12 0 -26 11 -32 24
-8 16 -11 17 -11 6z"/>
<path d="M3096 915 c-3 -9 -6 -22 -5 -28 0 -7 5 -1 10 12 5 13 8 26 5 28 -2 2
-6 -3 -10 -12z"/>
<path d="M1940 913 c0 -4 5 -15 10 -23 8 -13 10 -13 10 2 0 9 -4 20 -10 23 -5
3 -10 3 -10 -2z"/>
<path d="M2140 900 c0 -11 4 -20 9 -20 5 0 7 9 4 20 -3 11 -7 20 -9 20 -2 0
-4 -9 -4 -20z"/>
<path d="M2240 899 c0 -11 25 -22 39 -17 6 1 -1 8 -14 15 -14 6 -25 7 -25 2z"/>
</g>
</svg>
